<mxfile host="app.diagrams.net" modified="2024-01-20T09:07:48.192Z" agent="Mozilla/5.0 (Windows NT 10.0; Win64; x64) AppleWebKit/537.36 (KHTML, like Gecko) Chrome/120.0.0.0 Safari/537.36 Edg/120.0.0.0" version="22.1.21" etag="CPvij1S6n0Pc7OsEObh2" type="github">
  <diagram name="Страница — 1" id="y-7lYnYaA66c_im2-Ckr">
    <mxGraphModel>
      <root>
        <mxCell id="0" />
        <mxCell id="1" parent="0" />
      </root>
    </mxGraphModel>
  </diagram>
</mxfile>
